{"title":"PYM-005 Starring_ Riko ãƒªã‚³","uid":14443524,"size":868823201,"categoryP":"porn","categoryS":"movies","magnet":"?xt=urn:btih:b62878aacdead7e9814214e09ea1c3a3cc3aed92&amp;dn=PYM-005+Starring_+Riko+%E3%83%AA%E3%82%B3&amp;tr=udp%3A%2F%2Ftracker.leechers-paradise.org%3A6969&amp;tr=udp%3A%2F%2Fzer0day.ch%3A1337&amp;tr=udp%3A%2F%2Fopen.demonii.com%3A1337&amp;tr=udp%3A%2F%2Ftracker.coppersurfer.tk%3A6969&amp;tr=udp%3A%2F%2Fexodus.desync.com%3A6969","seeders":1,"leechers":0,"uploader":"drdre10","files":3,"time":1461702896,"description":"https://avmo.pw/en/movie/w51\r\n\r\n\r\nMovie is censored (mosaic)\r\n\r\n\r\nFormat                                   : AVI\r\nFormat/Info                              : Audio Video Interleave\r\nFile size                                : 828 MiB\r\nDuration                                 : 1h 16mn\r\nOverall bit rate                         : 1 516 Kbps\r\n\r\nVideo\r\nID                                       : 0\r\nFormat                                   : MPEG-4 Visual\r\nFormat settings, BVOP                    : No\r\nFormat settings, QPel                    : No\r\nFormat settings, GMC                     : No warppoints\r\nFormat settings, Matrix                  : Default (MPEG)\r\nCodec ID                                 : XVID\r\nCodec ID/Hint                            : XviD\r\nDuration                                 : 1h 16mn\r\nBit rate                                 : 1 454 Kbps\r\nWidth                                    : 864 pixels\r\nHeight                                   : 504 pixels\r\nDisplay aspect ratio                     : 1.714\r\nFrame rate                               : 29.970 (30000/1001) fps\r\nColor space                              : YUV\r\nChroma subsampling                       : 4:2:0\r\nBit depth                                : 8 bits\r\nScan type                                : Progressive\r\nCompression mode                         : Lossy\r\nBits/(Pixel*Frame)                       : 0.111\r\nStream size                              : 794 MiB (96%)\r\nTitle                                    : 76 01 01.avi Æ’rÆ’fÆ’I \r\n\r\nAudio\r\nID                                       : 1\r\nFormat                                   : MPEG Audio\r\nFormat version                           : Version 2\r\nFormat profile                           : Layer 3\r\nMode                                     : Joint stereo\r\nMode extension                           : Intensity Stereo + MS Stereo\r\nCodec ID                                 : 55\r\nCodec ID/Hint                            : MP3\r\nDuration                                 : 1h 16mn\r\nBit rate mode                            : Constant\r\nBit rate                                 : 56.0 Kbps\r\nChannel(s)                               : 2 channels\r\nSampling rate                            : 24.0 KHz\r\nCompression mode                         : Lossy\r\nStream size                              : 30.6 MiB (4%)\r\nAlignment                                : Split accross interleaves\r\nInterleave, duration                     : 55196 ms (1 654.22 video frames)\r\nTitle                                    : 76 01 01.avi Æ’IÂ[Æ’fÆ’B","torrent":{"xt":"urn:btih:b62878aacdead7e9814214e09ea1c3a3cc3aed92","amp;dn":"PYM-005+Starring_+Riko+%E3%83%AA%E3%82%B3","amp;tr":["udp%3A%2F%2Ftracker.leechers-paradise.org%3A6969","udp%3A%2F%2Fzer0day.ch%3A1337","udp%3A%2F%2Fopen.demonii.com%3A1337","udp%3A%2F%2Ftracker.coppersurfer.tk%3A6969","udp%3A%2F%2Fexodus.desync.com%3A6969"],"infoHash":"b62878aacdead7e9814214e09ea1c3a3cc3aed92","infoHashBuffer":{"type":"Buffer","data":[182,40,120,170,205,234,215,233,129,66,20,224,158,161,195,163,204,58,237,146]},"announce":[],"urlList":[]}}